# xmcd
#
# Track frame offsets: 
#        150
#        20240
#        35055
#        53176
#        75063
#        87837
#        103357
#        118371
#        132668
#        147413
#        163255
#
# Disc length: 2387 seconds
#
# Revision: 1
# Processed by: cddbd v1.5.2PL0 Copyright (c) Steve Scherf et al.
# Submitted via: ExactAudioCopyFreeDBPlugin 1.0
#
DISCID=a209510b
DTITLE=Big George Brock - Front Door Man
DYEAR=1999
DGENRE=Blues
TTITLE0=Front Door Man
TTITLE1=I Should Have Been There
TTITLE2=Don't Need No Young Man To Take My Place
TTITLE3=I've Been Relieved
TTITLE4=Can I Come By Your House Tonight
TTITLE5=Got My Mojo Working
TTITLE6=She Want Me To Come Home
TTITLE7=Little Girl, You Make Me Feel Good
TTITLE8=Problems
TTITLE9=Sihg The Blues (Like I Wanna)
TTITLE10=Just A Dream
EXTD=
EXTT0=
EXTT1=
EXTT2=
EXTT3=
EXTT4=
EXTT5=
EXTT6=
EXTT7=
EXTT8=
EXTT9=
EXTT10=
PLAYORDER=
